<svg xmlns="http://www.w3.org/2000/svg" viewBox="0 0 149.67 40.8"><defs><style>.cls-1{fill:#8e40ff;}.cls-2{fill:#ffb127;}</style></defs><title>logo</title><g id="Capa_2" data-name="Capa 2"><g id="TEXTO"><path class="cls-1" d="M10.87,40.29,0,11.76H8.14L13.66,28a28.87,28.87,0,0,1,1.14,5.84H15A25.16,25.16,0,0,1,16.11,28l5.48-16.26h8.15L18.86,40.29Z"/><path class="cls-1" d="M33.49,4.38q0-3.79,4.24-3.8T42,4.38A3.69,3.69,0,0,1,40.9,7.2a4.44,4.44,0,0,1-3.17,1Q33.49,8.21,33.49,4.38Zm8.12,35.91H33.82V11.76h7.79Z"/><path class="cls-1" d="M65.65,11.22a9.24,9.24,0,0,1,7.91,3.94Q76.43,19.1,76.42,26q0,7.08-3,11a9.53,9.53,0,0,1-8,3.88,9.43,9.43,0,0,1-7.88-3.65H57l-1.3,3.14H49.77V.58h7.79V9.82c0,1.17-.1,3-.31,5.64h.31A9,9,0,0,1,65.65,11.22Zm-2.5,6.23a4.9,4.9,0,0,0-4.21,1.77Q57.61,21,57.56,25.08v.84c0,3.07.45,5.26,1.36,6.59a4.88,4.88,0,0,0,4.33,2,4.36,4.36,0,0,0,3.82-2.21,12,12,0,0,0,1.41-6.42c0-2.81-.47-4.91-1.43-6.32A4.47,4.47,0,0,0,63.15,17.45Z"/><path class="cls-1" d="M95.77,40.8Q88.87,40.8,85,37T81.12,26.23q0-7.17,3.58-11.09t9.92-3.92q6,0,9.42,3.45t3.37,9.52V28H89a7.49,7.49,0,0,0,2,5.18A6.91,6.91,0,0,0,96.13,35a21.25,21.25,0,0,0,4.87-.54,23.58,23.58,0,0,0,4.8-1.71v6a18.67,18.67,0,0,1-4.37,1.52A27.57,27.57,0,0,1,95.77,40.8Zm-1.1-24a4.93,4.93,0,0,0-3.88,1.57,7.27,7.27,0,0,0-1.61,4.45h10.93a6.52,6.52,0,0,0-1.51-4.45A5.09,5.09,0,0,0,94.67,16.76Z"/><path class="cls-1" d="M126.65,40.8q-6.89,0-10.77-3.8T112,26.23q0-7.17,3.59-11.09t9.91-3.92q6.06,0,9.42,3.45t3.37,9.52V28h-18.4a7.49,7.49,0,0,0,2,5.18A6.94,6.94,0,0,0,127,35a21.34,21.34,0,0,0,4.88-.54,23.29,23.29,0,0,0,4.79-1.71v6a18.6,18.6,0,0,1-4.36,1.52A27.74,27.74,0,0,1,126.65,40.8Zm-1.09-24a4.91,4.91,0,0,0-3.88,1.57,7.21,7.21,0,0,0-1.61,4.45H131a6.47,6.47,0,0,0-1.5-4.45A5.09,5.09,0,0,0,125.56,16.76Z"/><path class="cls-2" d="M149.65,22.77l-6-.22c.19-5.14-1.33-9.59-4.28-12.54-2.79-2.79-6.72-4.17-11.38-4l-.22-6c6.36-.23,11.85,1.75,15.84,5.75C147.76,9.91,149.9,16,149.65,22.77Z"/></g></g></svg>