<svg xmlns="http://www.w3.org/2000/svg" xmlns:xlink="http://www.w3.org/1999/xlink" viewBox="0 0 347.12 618"><defs><style>.cls-1{fill:#f3b58e;}.cls-2{clip-path:url(#clip-path);}.cls-3{fill:#dd9f7e;}.cls-4{fill:#e6dfbf;}.cls-5{fill:#070a1c;}.cls-6{fill:#202d42;}.cls-7{fill:#2e4159;}.cls-8{fill:#efede4;}.cls-9{fill:#f33942;}.cls-10{fill:#182237;}.cls-11{fill:#192439;}.cls-12,.cls-13{fill:none;stroke-miterlimit:10;}.cls-12{stroke:#1c1c1c;stroke-width:0.81px;}.cls-13{stroke:#b3b7ac;stroke-width:1.08px;}.cls-14{fill:#1c1c1c;}.cls-15{fill:#354c52;}.cls-16{fill:#d7e2de;}.cls-17{fill:#b2b6ab;}.cls-18{fill:#c58467;}.cls-19{fill:#d48f6c;}.cls-20{fill:#fdd9c7;}.cls-21{fill:#552616;}.cls-22{fill:#ca845e;}.cls-23{fill:#f8f6f5;}.cls-24{fill:#fff;}.cls-25{fill:#163f51;}</style><clipPath id="clip-path"><path class="cls-1" d="M217.74,148.45l1.1-10.37s6.28-5,7.54-16.48l36.12.15s-4.24,9.58,2.51,14l-6.44,13.19-22.45,5.65-15.24.16Z"/></clipPath></defs><title>persona-02</title><g id="Capa_2" data-name="Capa 2"><g id="TEXTO"><path class="cls-1" d="M217.74,148.45l1.1-10.37s6.28-5,7.54-16.48l36.12.15s-4.24,9.58,2.51,14l-6.44,13.19-22.45,5.65-15.24.16Z"/><g class="cls-2"><ellipse class="cls-3" cx="242.24" cy="114.21" rx="28.42" ry="20.1"/></g><path class="cls-4" d="M290,155.83c-.94-.94-18.84-13-18.84-13L260.46,148l-27,10.05-11-4.08-6-10.37-7.34-.21-18.73,31-6.6,26.7.32,21.67,13.82,27,13.19,5.34,41.46-33.29,30.77-39.58,9.11-17.9Z"/><path class="cls-5" d="M224.83,601.81l-.22.62-23.82,11.35a2.22,2.22,0,0,0,1.1,4.22l34.38-2.24a2.3,2.3,0,0,0,2-3.09l-3.88-10.54-9.42.47Z"/><path class="cls-5" d="M284.56,617.68l-20.49-18.85c.47,2.36-8.48.95-8.48.95l-3.06,17Z"/><path class="cls-6" d="M264.07,598.83l-1.65-4.24,1.65,4.24c-.47-2.35-8.48-245.45-8.48-245.45S241,341.61,241,340.19,185.86,336,185.86,336l-4.71,11.78,43.68,254.08,2-5.69-2,5.69.14.79,9.42-.47-4.24-6.59,4.24,6.59-24-229.43,18.38-1.89,26.85,229a63.38,63.38,0,0,0,3.06-5.89,63.38,63.38,0,0,1-3.06,5.89S264.54,601.19,264.07,598.83Z"/><path class="cls-7" d="M282.68,205.45,295,197.21s68.12,81.42-48,86.1L249,295s68.33,11.28,91.89-33.95S314,158.34,314,158.34l-11.78,3.77"/><path class="cls-8" d="M218.84,138.08l-7.06,4.24,3.76,22.15s13-14.84,12.25-15.31S218.84,138.08,218.84,138.08Z"/><path class="cls-8" d="M227.79,149.16l8.72,17.19,34.63-23.55L265,135.73S258.18,150.1,227.79,149.16Z"/><polygon class="cls-9" points="227.79 149.16 215.54 164.47 223.79 176.25 236.51 166.35 227.79 149.16"/><polygon class="cls-9" points="223.79 176.25 190.57 234.66 199.29 257.04 227.32 233.01 223.79 176.25"/><path class="cls-7" d="M190.1,320.09a113.31,113.31,0,0,1,6.25-37.59c-.53-12.91-.61-24.16-.61-29.81-14.6-25-11.92-57-11.92-57L193.56,185l-5.34-10.37,21-31.09-.11-.21L178.8,155.52s-21.67,101.29,2.35,192.21c0,0,12.25,9.89,21.67-6.12l.29-3c-4.13-13.51-6-36.66-6.76-56.07A113.31,113.31,0,0,0,190.1,320.09Z"/><path class="cls-10" d="M188.22,174.67,193.56,185l-9.74,10.68s-2.68,32,11.92,57c0-2.48,0-3.89,0-3.89,1.4-1.16,2.73-2.3,4.08-3.45-5.7-18.82-8.2-51.87,11.94-103l-2.63,1.05.11.21Z"/><path class="cls-7" d="M271.14,142.8l9.73,45.07L262.34,191l-.94,28.26s-33.44,9.92-54.52,41.94a30.48,30.48,0,0,0,3,4.08l-.34,3.64a53.55,53.55,0,0,0,9.76,6.25,53.55,53.55,0,0,1-9.76-6.25l-6.44,69.64a28.34,28.34,0,0,0,3.95,8.69c12.25,16,34.4,9.89,48.53,6.12l-2.83-82L295.16,197s1.77-26,18.85-38.63Z"/><path class="cls-7" d="M204.78,264.6a98.31,98.31,0,0,0-8.43,17.9c.8,19.41,2.63,42.56,6.76,56.07l6.44-69.64A54.9,54.9,0,0,1,204.78,264.6Z"/><path class="cls-7" d="M209.55,268.93l.34-3.64a30.48,30.48,0,0,1-3-4.08c-.72,1.1-1.41,2.24-2.1,3.39A54.9,54.9,0,0,0,209.55,268.93Z"/><path class="cls-11" d="M271.14,142.8s3.46,39.35-71.3,102.55c-1.35,1.15-2.68,2.29-4.08,3.45,0,0,0,1.41,0,3.89,0,5.65.08,16.9.61,29.81a98.31,98.31,0,0,1,8.43-17.9c.69-1.15,1.38-2.29,2.1-3.39,21.08-32,54.52-41.94,54.52-41.94l.94-28.26,18.53-3.14Z"/><path class="cls-7" d="M178.8,155.52S120.38,263.24,35.27,219.9l-3.19,10.82s72,46.66,120.34-4.85c33.08-35.23,36.11-38.63,36.11-38.63Z"/><path class="cls-12" d="M14.48,236.66a2.58,2.58,0,0,0-.42,1.07,2.48,2.48,0,0,0,.9,2.34"/><path class="cls-13" d="M7.64,241.74l.38.07a7.1,7.1,0,0,0,7.1-3.29"/><path class="cls-14" d="M1,238.28l-.9,6c-.3,2,.54,4.34,2.56,4.65l.32,0h0l5.25.79h0l.6.09c2,.3,3.22-1.73,3.52-3.74l.9-6c.3-2-.31-4-2.32-4.26l-6.18-.93C2.7,234.62,1.26,236.26,1,238.28Zm1.37,1.66c.11-.74.86-1.66,1.6-1.55l6.42,1c.74.11,1.19,1.21,1.08,2s-.86,1.66-1.6,1.55l-6.42-1C2.67,241.78,2.22,240.67,2.33,239.94Z"/><path class="cls-15" d="M3.38,245.46l4.72.71c.54.08.8,1.35.72,1.89s-.7,1.69-1.24,1.61L2.85,249c-.54-.08-.8-1.35-.72-1.9S2.83,245.38,3.38,245.46Z"/><polygon class="cls-16" points="2.07 266.74 3.82 267 6.44 249.5 8.19 249.76 5.57 267.26 0.32 266.48 2.94 248.97 4.69 249.24 2.07 266.74"/><polygon class="cls-15" points="8.19 249.76 8.19 249.76 6.44 249.5 6.44 249.5 4.69 249.24 4.69 249.24 2.94 248.97 2.94 248.97 8.19 249.76"/><rect class="cls-17" x="-4.6" y="257.23" width="17.7" height="1.77" transform="translate(-251.65 224.14) rotate(-81.49)"/><rect class="cls-15" x="4.33" y="247.8" width="0.72" height="1.44" transform="translate(-241.78 216.37) rotate(-81.49)"/><path class="cls-14" d="M14,244.91l1.71,8.86a5.41,5.41,0,0,0,10.63-2l-1.7-8.86a5.42,5.42,0,0,0-10.64,2Zm6.33-.57a1.76,1.76,0,1,1-2.06-1.4A1.77,1.77,0,0,1,20.3,244.34ZM17.92,253a2.17,2.17,0,1,1,2.54,1.72A2.18,2.18,0,0,1,17.92,253Z"/><path class="cls-15" d="M18.9,246.4a1.76,1.76,0,1,1,1.4-2.06A1.76,1.76,0,0,1,18.9,246.4Z"/><path class="cls-15" d="M19.64,250.48A2.17,2.17,0,1,1,17.92,253,2.18,2.18,0,0,1,19.64,250.48Z"/><path class="cls-13" d="M15.12,238.52a7.09,7.09,0,1,0-7.48,3.22"/><path class="cls-12" d="M15,240.07a2.21,2.21,0,0,0,1.06.46,2.48,2.48,0,0,0,.73-4.9,2.35,2.35,0,0,0-2.27,1"/><path class="cls-1" d="M4.29,222.45l.94,4.16s-3.38,6.15.74,6.68,4.82-2.93,11.8-1.43,8.93,1.88,11.43-.2,2.88-.94,2.88-.94l3.19-10.82L22,208.17a3.7,3.7,0,0,0-3.22-.25l-10,3.31a2.57,2.57,0,0,0-1.61,1.59L4.4,220.6A3.33,3.33,0,0,0,4.29,222.45Zm9.11,2a34.09,34.09,0,0,1-3.77-.36s-1-4.8,1.76-7.49l5.59-.69a6.88,6.88,0,0,1,1.17-1.22A6.88,6.88,0,0,0,17,215.89l2.4-.3a11.47,11.47,0,0,1,1.52,3.09,3.28,3.28,0,0,0,.58-.68,3.28,3.28,0,0,1-.58.68c.63,2.08.47,4.59-3.3,5.46a1.38,1.38,0,0,0,1,1,1.38,1.38,0,0,1-1-1,16.06,16.06,0,0,1-4.2.29,2.53,2.53,0,0,0,.93,1.17A2.53,2.53,0,0,1,13.4,224.43ZM6,228.1s4.42-.89,4.38,2.39-4.28,1.82-4.28,1.82S7.45,231.32,6,228.1Z"/><path class="cls-18" d="M17,215.89l2.4-.3a11.47,11.47,0,0,1,1.52,3.09c-1.16,1.26-3.64,3.89-3.3,5.46a16.06,16.06,0,0,1-4.2.29C12.46,222,15.28,217.91,17,215.89Z"/><path class="cls-19" d="M11.39,216.58l5.59-.69c-1.7,2-4.52,6.09-3.58,8.54a34.09,34.09,0,0,1-3.77-.36S8.61,219.27,11.39,216.58Z"/><path class="cls-20" d="M10.4,230.49c0,3.27-4.28,1.82-4.28,1.82s1.33-1-.1-4.21C6,228.1,10.44,227.21,10.4,230.49Z"/><path class="cls-1" d="M270.25,50.15s-28.48.29-45.38-10c-3.8,10.94-12.92,40.85-9.1,66.47,2.91,19.49,18.42,23.47,30.1,23.6,12.71.14,24.46-7.13,29.21-18.91a42.71,42.71,0,0,0,2.76-11.15l.29-.26L277.27,94C297.21,57.46,270.25,50.15,270.25,50.15Z"/><path class="cls-21" d="M287.67,45.1s6-30.47-25.72-29c-22.84,1-32.42-.74-32.14-11.13S205.63,0,210.13,26.43c1.19,7,6.61,12.3,12.72,16,16.9,10.31,47.4,7.7,47.4,7.7s27,7.31,7,43.82l.86,5.92C281.43,97,323,66.24,287.67,45.1Z"/><path class="cls-1" d="M293.05,99c-2.88,6.7-9.25,10.39-14.24,8.25s-6.7-9.31-3.83-16,9.25-10.4,14.24-8.26S295.92,92.27,293.05,99Z"/><path class="cls-22" d="M279,101.17a19.46,19.46,0,0,1-.67-5.17,11.77,11.77,0,0,1,1.1-5.26,6.27,6.27,0,0,1,1.84-2.2c.2-.14.4-.3.61-.42l.67-.3a5.66,5.66,0,0,1,1.38-.43,6.31,6.31,0,0,1,1.45-.13,6.7,6.7,0,0,1,1.47.22,6.3,6.3,0,0,1,2.57,1.5,7.67,7.67,0,0,1,2.05,5.27,7.9,7.9,0,0,1-.52,2.8,8,8,0,0,1-1.51,2.37,9.8,9.8,0,0,1-2,1.86,1.93,1.93,0,0,1-1.69.26A1.76,1.76,0,0,1,285,101a3.45,3.45,0,0,1-.34-.66,10.77,10.77,0,0,1-.52-2.62c-.09-.87-.12-1.73-.14-2.6.2.84.38,1.69.6,2.52a10.67,10.67,0,0,0,.81,2.35,2.61,2.61,0,0,0,.3.46c.11.1.22.21.32.22s.43-.06.73-.28a9.65,9.65,0,0,0,1.61-1.78,7.53,7.53,0,0,0,1.15-2,6.49,6.49,0,0,0,.3-2.27,6.09,6.09,0,0,0-1.65-4.11,4.49,4.49,0,0,0-1.83-1.11,5.44,5.44,0,0,0-1.07-.18,5.19,5.19,0,0,0-1.11.08,5,5,0,0,0-3.63,2.42,11.87,11.87,0,0,0-1.43,4.67A28.18,28.18,0,0,0,279,101.17Z"/><path class="cls-23" d="M232.2,102.25s2.67,15.17,15.58,9.55c10.84-4.71,11.9-12.28,12-14.61"/><path class="cls-22" d="M232.2,102.25a21.84,21.84,0,0,0,2.09,4.7,12.54,12.54,0,0,0,3.23,3.73c2.61,2,6.11,1.91,9.15.66a25.08,25.08,0,0,0,8.46-5.29,15.63,15.63,0,0,0,4.61-8.86,13.79,13.79,0,0,1-3.65,9.76,20.91,20.91,0,0,1-4.06,3.51,28.92,28.92,0,0,1-4.76,2.45,12.92,12.92,0,0,1-5.43.91,8.9,8.9,0,0,1-5.13-2.11,12.4,12.4,0,0,1-3.16-4.38A16.84,16.84,0,0,1,232.2,102.25Z"/><path class="cls-22" d="M259.74,97.19l-.05-.2h.1v.08l0,.1v0l-.08,0a64.42,64.42,0,0,1-6.7,2.15c-2.27.61-4.56,1.12-6.86,1.55s-4.62.78-7,1a50.11,50.11,0,0,1-7,.26c2.28-.59,4.56-1.06,6.85-1.54s4.56-.91,6.84-1.37,4.58-.85,6.88-1.23,4.61-.74,6.94-1l-.07.09,0-.1V97h.1Z"/><path class="cls-22" d="M241,86.84A7.8,7.8,0,0,1,245.51,85a3.3,3.3,0,0,1,2.42,1,1.84,1.84,0,0,1,.49,1.42,2.94,2.94,0,0,1-.47,1.34A9.4,9.4,0,0,1,244,92a14.84,14.84,0,0,1-4.88,1.43,14.68,14.68,0,0,1-5.11-.29,14,14,0,0,1-2.45-.86,6.57,6.57,0,0,1-2.23-1.65,3.58,3.58,0,0,1-.85-2.92,4.88,4.88,0,0,1,1.37-2.56,6.59,6.59,0,0,1,2.34-1.51,4.24,4.24,0,0,1,3-.1l-1,.42a42.81,42.81,0,0,0,2.05-5.48,35.1,35.1,0,0,0,1.31-5.72,21,21,0,0,0,.1-5.82,11.21,11.21,0,0,0-2.21-5.4,10.59,10.59,0,0,1,2.84,5.27,19.67,19.67,0,0,1,.38,6.07,35.59,35.59,0,0,1-1.05,6,43.49,43.49,0,0,1-2,5.76l-.28.67-.73-.26a3.83,3.83,0,0,0-3.53,1.27,3.18,3.18,0,0,0-.9,1.66,2,2,0,0,0,.47,1.61,7.51,7.51,0,0,0,3.8,2A13,13,0,0,0,239,92a14.57,14.57,0,0,0,4.49-1.11,8.94,8.94,0,0,0,3.67-2.63,1.46,1.46,0,0,0,.2-1.75,2.63,2.63,0,0,0-1.87-1,5.61,5.61,0,0,0-2.31.32A11.49,11.49,0,0,0,241,86.84Z"/><path class="cls-24" d="M233.39,69.73c0,3.69-2.64,6.68-5.9,6.68s-5.89-3-5.89-6.68S224.24,63,227.49,63,233.39,66,233.39,69.73Z"/><path class="cls-24" d="M261.62,71.31c0,3.69-2.64,6.68-5.9,6.68s-5.9-3-5.9-6.68,2.64-6.69,5.9-6.69S261.62,67.61,261.62,71.31Z"/><path class="cls-25" d="M230,70.78c0,2.06-1.11,3.74-2.47,3.74s-2.48-1.68-2.48-3.74S226.18,67,227.55,67,230,68.71,230,70.78Z"/><path class="cls-25" d="M259,72.62c0,2.07-1.11,3.74-2.48,3.74s-2.47-1.67-2.47-3.74,1.1-3.74,2.47-3.74S259,70.56,259,72.62Z"/><path class="cls-1" d="M232.13,79.63c0,3.69-2.64,6.68-5.9,6.68s-5.9-3-5.9-6.68,2.64-6.69,5.9-6.69S232.13,75.93,232.13,79.63Z"/><ellipse class="cls-1" cx="256.35" cy="81.1" rx="5.9" ry="6.69"/><path class="cls-25" d="M221.38,59.35a8.12,8.12,0,0,1,2.15-2.91,7.5,7.5,0,0,1,3.32-1.79,5.44,5.44,0,0,1,3.86.5,5.81,5.81,0,0,1,2.47,2.73,12.42,12.42,0,0,0-3-1.52,5.83,5.83,0,0,0-3-.07,11.09,11.09,0,0,0-2.93,1.21C223.33,58.05,222.38,58.67,221.38,59.35Z"/><path class="cls-25" d="M251.41,60.12a8,8,0,0,1,3.15-1.78,7.55,7.55,0,0,1,3.76-.26,5.39,5.39,0,0,1,3.31,2.05,5.69,5.69,0,0,1,1.13,3.49,11.92,11.92,0,0,0-2.1-2.6A5.81,5.81,0,0,0,258,59.73a11.55,11.55,0,0,0-3.18-.1C253.72,59.73,252.59,59.91,251.41,60.12Z"/></g></g></svg>